<?xml version="1.0" encoding="UTF-8"?>
<svg xmlns="http://www.w3.org/2000/svg" 
     width="876.13" height="882.88"
     viewBox="0 0 876.13 882.88">
<rect width="100%" height="100%" fill="#ffffff"/>

        <defs>
            <marker id="arrowhead" markerWidth="10" markerHeight="7" 
                    refX="9" refY="3.5" orient="auto">
                <polygon points="0 0, 10 3.5, 0 7" fill="#bdc3c7"/>
            </marker>
        </defs>
        
<!-- Floor -->
<polygon points="432.38,60.00 300.24,297.37 60.00,728.93 228.76,822.88 345.50,613.18 575.29,741.10 629.35,643.99 495.94,569.72 566.29,443.35 671.01,501.65 816.13,240.96 677.51,124.15 646.78,179.35" stroke="#e0e0e0" fill="#fafafa" stroke-width="2"/>
<!-- Walls -->
<line x1="671.01" y1="501.65" x2="816.13" y2="240.96" stroke="#2c3e50" stroke-width="6" stroke-linecap="round"/>
<line x1="646.78" y1="179.35" x2="432.38" y2="60.00" stroke="#2c3e50" stroke-width="6" stroke-linecap="round"/>
<line x1="228.76" y1="822.88" x2="345.50" y2="613.18" stroke="#2c3e50" stroke-width="6" stroke-linecap="round"/>
<line x1="60.00" y1="728.93" x2="228.76" y2="822.88" stroke="#2c3e50" stroke-width="6" stroke-linecap="round"/>
<line x1="816.13" y1="240.96" x2="677.51" y2="124.15" stroke="#2c3e50" stroke-width="6" stroke-linecap="round"/>
<line x1="629.35" y1="643.99" x2="495.94" y2="569.72" stroke="#2c3e50" stroke-width="6" stroke-linecap="round"/>
<line x1="495.94" y1="569.72" x2="566.29" y2="443.35" stroke="#2c3e50" stroke-width="6" stroke-linecap="round"/>
<line x1="566.29" y1="443.35" x2="671.01" y2="501.65" stroke="#2c3e50" stroke-width="6" stroke-linecap="round"/>
<line x1="575.29" y1="741.10" x2="629.35" y2="643.99" stroke="#2c3e50" stroke-width="6" stroke-linecap="round"/>
<line x1="677.51" y1="124.15" x2="646.78" y2="179.35" stroke="#2c3e50" stroke-width="6" stroke-linecap="round"/>
<line x1="465.45" y1="388.26" x2="509.86" y2="412.98" stroke="#2c3e50" stroke-width="6" stroke-linecap="round"/>
<line x1="409.86" y1="488.11" x2="438.27" y2="503.92" stroke="#2c3e50" stroke-width="6" stroke-linecap="round"/>
<line x1="409.86" y1="488.11" x2="465.45" y2="388.26" stroke="#2c3e50" stroke-width="6" stroke-linecap="round"/>
<line x1="374.31" y1="551.97" x2="409.86" y2="488.11" stroke="#2c3e50" stroke-width="6" stroke-linecap="round"/>
<line x1="402.72" y1="567.78" x2="374.31" y2="551.97" stroke="#2c3e50" stroke-width="6" stroke-linecap="round"/>
<line x1="402.72" y1="567.78" x2="438.27" y2="503.92" stroke="#2c3e50" stroke-width="6" stroke-linecap="round"/>
<line x1="300.24" y1="297.37" x2="421.66" y2="364.96" stroke="#2c3e50" stroke-width="6" stroke-linecap="round"/>
<line x1="300.24" y1="297.37" x2="60.00" y2="728.93" stroke="#2c3e50" stroke-width="6" stroke-linecap="round"/>
<line x1="345.50" y1="613.18" x2="575.29" y2="741.10" stroke="#2c3e50" stroke-width="6" stroke-linecap="round"/>
<line x1="432.38" y1="60.00" x2="300.24" y2="297.37" stroke="#2c3e50" stroke-width="6" stroke-linecap="round"/>
<!-- Doors -->
<line x1="502.23" y1="558.42" x2="528.88" y2="510.55" stroke="#ffffff" stroke-width="8" stroke-linecap="round"/>
<line x1="502.23" y1="558.42" x2="528.88" y2="510.55" stroke="#e74c3c" stroke-width="2" stroke-linecap="round"/>
<path d="M 528.88 510.55 A 54.78 54.78 0 0 1 550.10 585.06" stroke="#e74c3c" stroke-width="2" fill="none"/>
<line x1="675.54" y1="493.50" x2="770.13" y2="323.59" stroke="#ffffff" stroke-width="8" stroke-linecap="round"/>
<line x1="675.54" y1="493.50" x2="770.13" y2="323.59" stroke="#e74c3c" stroke-width="2" stroke-linecap="round"/>
<path d="M 770.13 323.59 A 194.47 194.47 0 0 1 845.46 588.09" stroke="#e74c3c" stroke-width="2" fill="none"/>
<line x1="381.92" y1="150.64" x2="357.74" y2="194.08" stroke="#ffffff" stroke-width="8" stroke-linecap="round"/>
<line x1="381.92" y1="150.64" x2="357.74" y2="194.08" stroke="#e74c3c" stroke-width="2" stroke-linecap="round"/>
<path d="M 357.74 194.08 A 49.71 49.71 0 0 1 338.49 126.46" stroke="#e74c3c" stroke-width="2" fill="none"/>
<line x1="101.29" y1="654.76" x2="79.84" y2="693.29" stroke="#ffffff" stroke-width="8" stroke-linecap="round"/>
<line x1="101.29" y1="654.76" x2="79.84" y2="693.29" stroke="#e74c3c" stroke-width="2" stroke-linecap="round"/>
<path d="M 79.84 693.29 A 44.10 44.10 0 0 1 62.76 633.31" stroke="#e74c3c" stroke-width="2" fill="none"/>
<line x1="397.54" y1="642.15" x2="436.81" y2="664.01" stroke="#ffffff" stroke-width="8" stroke-linecap="round"/>
<line x1="397.54" y1="642.15" x2="436.81" y2="664.01" stroke="#e74c3c" stroke-width="2" stroke-linecap="round"/>
<path d="M 436.81 664.01 A 44.95 44.95 0 0 1 375.67 681.43" stroke="#e74c3c" stroke-width="2" fill="none"/>
<!-- Windows -->
<line x1="676.40" y1="126.14" x2="654.19" y2="166.04" stroke="#ffffff" stroke-width="8" stroke-linecap="round"/>
<line x1="676.40" y1="126.14" x2="654.19" y2="166.04" stroke="#3498db" stroke-width="4" stroke-linecap="round"/>
<line x1="676.40" y1="126.14" x2="654.19" y2="166.04" stroke="#ffffff" stroke-width="2" stroke-linecap="round"/>
<line x1="160.82" y1="547.83" x2="108.26" y2="642.23" stroke="#ffffff" stroke-width="8" stroke-linecap="round"/>
<line x1="160.82" y1="547.83" x2="108.26" y2="642.23" stroke="#3498db" stroke-width="4" stroke-linecap="round"/>
<line x1="160.82" y1="547.83" x2="108.26" y2="642.23" stroke="#ffffff" stroke-width="2" stroke-linecap="round"/>
<line x1="226.77" y1="429.34" x2="181.19" y2="511.22" stroke="#ffffff" stroke-width="8" stroke-linecap="round"/>
<line x1="226.77" y1="429.34" x2="181.19" y2="511.22" stroke="#3498db" stroke-width="4" stroke-linecap="round"/>
<line x1="226.77" y1="429.34" x2="181.19" y2="511.22" stroke="#ffffff" stroke-width="2" stroke-linecap="round"/>
<line x1="286.83" y1="321.45" x2="226.77" y2="429.34" stroke="#ffffff" stroke-width="8" stroke-linecap="round"/>
<line x1="286.83" y1="321.45" x2="226.77" y2="429.34" stroke="#3498db" stroke-width="4" stroke-linecap="round"/>
<line x1="286.83" y1="321.45" x2="226.77" y2="429.34" stroke="#ffffff" stroke-width="2" stroke-linecap="round"/>
<line x1="354.79" y1="199.38" x2="306.73" y2="285.72" stroke="#ffffff" stroke-width="8" stroke-linecap="round"/>
<line x1="354.79" y1="199.38" x2="306.73" y2="285.72" stroke="#3498db" stroke-width="4" stroke-linecap="round"/>
<line x1="354.79" y1="199.38" x2="306.73" y2="285.72" stroke="#ffffff" stroke-width="2" stroke-linecap="round"/>
<line x1="429.99" y1="64.30" x2="383.69" y2="147.47" stroke="#ffffff" stroke-width="8" stroke-linecap="round"/>
<line x1="429.99" y1="64.30" x2="383.69" y2="147.47" stroke="#3498db" stroke-width="4" stroke-linecap="round"/>
<line x1="429.99" y1="64.30" x2="383.69" y2="147.47" stroke="#ffffff" stroke-width="2" stroke-linecap="round"/>
<!-- Room Labels -->
<text x="565.26" y="275.56" font-family="Arial, sans-serif" font-size="14" fill="#7f8c8d" text-anchor="middle" dominant-baseline="middle">Living Room</text>
<text x="322.73" y="468.78" font-family="Arial, sans-serif" font-size="14" fill="#7f8c8d" text-anchor="middle" dominant-baseline="middle">Dining Room</text>
<text x="201.30" y="673.39" font-family="Arial, sans-serif" font-size="14" fill="#7f8c8d" text-anchor="middle" dominant-baseline="middle">Kitchen</text>
<text x="498.37" y="639.48" font-family="Arial, sans-serif" font-size="14" fill="#7f8c8d" text-anchor="middle" dominant-baseline="middle">Unidentified</text>
</svg>