<?xml version="1.0" encoding="UTF-8"?>
<svg xmlns="http://www.w3.org/2000/svg" 
     width="1120.87" height="1108.45"
     viewBox="0 0 1120.87 1108.45">
<rect width="100%" height="100%" fill="#ffffff"/>

        <defs>
            <marker id="arrowhead" markerWidth="10" markerHeight="7" 
                    refX="9" refY="3.5" orient="auto">
                <polygon points="0 0, 10 3.5, 0 7" fill="#bdc3c7"/>
            </marker>
        </defs>
        
<!-- Floor -->
<polygon points="803.46,546.80 768.79,374.06 705.75,60.00 750.03,280.62 780.66,433.22 840.96,733.62 855.15,804.29 820.14,629.88 838.60,721.85 866.08,858.74 904.16,1048.45 867.78,867.24 859.72,827.07" stroke="#e0e0e0" fill="#fafafa" stroke-width="2"/>
<!-- Walls -->
<line x1="961.66" y1="451.84" x2="658.95" y2="709.96" stroke="#2c3e50" stroke-width="6" stroke-linecap="round"/>
<line x1="916.45" y1="705.37" x2="704.17" y2="456.42" stroke="#2c3e50" stroke-width="6" stroke-linecap="round"/>
<line x1="932.05" y1="477.08" x2="688.56" y2="684.71" stroke="#2c3e50" stroke-width="6" stroke-linecap="round"/>
<line x1="726.76" y1="482.91" x2="893.85" y2="678.88" stroke="#2c3e50" stroke-width="6" stroke-linecap="round"/>
<line x1="904.84" y1="656.18" x2="715.77" y2="505.62" stroke="#2c3e50" stroke-width="6" stroke-linecap="round"/>
<line x1="876.36" y1="658.36" x2="744.26" y2="503.44" stroke="#2c3e50" stroke-width="6" stroke-linecap="round"/>
<line x1="883.68" y1="518.33" x2="736.94" y2="643.46" stroke="#2c3e50" stroke-width="6" stroke-linecap="round"/>
<line x1="758.46" y1="520.10" x2="862.15" y2="641.70" stroke="#2c3e50" stroke-width="6" stroke-linecap="round"/>
<line x1="866.69" y1="532.82" x2="753.92" y2="628.97" stroke="#2c3e50" stroke-width="6" stroke-linecap="round"/>
<line x1="778.26" y1="608.23" x2="842.36" y2="553.57" stroke="#2c3e50" stroke-width="6" stroke-linecap="round"/>
<line x1="788.32" y1="555.11" x2="832.30" y2="606.68" stroke="#2c3e50" stroke-width="6" stroke-linecap="round"/>
<line x1="796.24" y1="564.40" x2="824.37" y2="597.39" stroke="#2c3e50" stroke-width="6" stroke-linecap="round"/>
<line x1="868.28" y1="531.46" x2="752.34" y2="630.33" stroke="#2c3e50" stroke-width="6" stroke-linecap="round"/>
<line x1="847.38" y1="549.28" x2="773.23" y2="612.51" stroke="#2c3e50" stroke-width="6" stroke-linecap="round"/>
<line x1="824.37" y1="597.39" x2="796.24" y2="564.40" stroke="#2c3e50" stroke-width="6" stroke-linecap="round"/>
<line x1="847.38" y1="549.28" x2="773.23" y2="612.51" stroke="#2c3e50" stroke-width="6" stroke-linecap="round"/>
<line x1="750.19" y1="510.40" x2="870.42" y2="651.39" stroke="#2c3e50" stroke-width="6" stroke-linecap="round"/>
<line x1="559.75" y1="794.55" x2="1060.87" y2="367.25" stroke="#2c3e50" stroke-width="6" stroke-linecap="round"/>
<line x1="696.54" y1="447.48" x2="924.07" y2="714.32" stroke="#2c3e50" stroke-width="6" stroke-linecap="round"/>
<line x1="672.49" y1="698.41" x2="948.12" y2="463.38" stroke="#2c3e50" stroke-width="6" stroke-linecap="round"/>
<!-- Doors -->
<line x1="838.10" y1="557.20" x2="782.52" y2="604.59" stroke="#ffffff" stroke-width="8" stroke-linecap="round"/>
<line x1="838.10" y1="557.20" x2="782.52" y2="604.59" stroke="#e74c3c" stroke-width="2" stroke-linecap="round"/>
<path d="M 782.52 604.59 A 73.04 73.04 0 0 1 790.70 501.62" stroke="#e74c3c" stroke-width="2" fill="none"/>
<line x1="908.96" y1="496.78" x2="711.65" y2="665.02" stroke="#ffffff" stroke-width="8" stroke-linecap="round"/>
<line x1="908.96" y1="496.78" x2="711.65" y2="665.02" stroke="#e74c3c" stroke-width="2" stroke-linecap="round"/>
<path d="M 711.65 665.02 A 259.29 259.29 0 0 1 740.72 299.47" stroke="#e74c3c" stroke-width="2" fill="none"/>
<line x1="785.09" y1="602.40" x2="835.52" y2="559.39" stroke="#ffffff" stroke-width="8" stroke-linecap="round"/>
<line x1="785.09" y1="602.40" x2="835.52" y2="559.39" stroke="#e74c3c" stroke-width="2" stroke-linecap="round"/>
<path d="M 835.52 559.39 A 66.28 66.28 0 0 1 828.10 652.84" stroke="#e74c3c" stroke-width="2" fill="none"/>
<line x1="787.94" y1="599.97" x2="832.68" y2="561.82" stroke="#ffffff" stroke-width="8" stroke-linecap="round"/>
<line x1="787.94" y1="599.97" x2="832.68" y2="561.82" stroke="#e74c3c" stroke-width="2" stroke-linecap="round"/>
<path d="M 832.68 561.82 A 58.80 58.80 0 0 1 826.09 644.71" stroke="#e74c3c" stroke-width="2" fill="none"/>
<line x1="790.86" y1="558.09" x2="829.75" y2="603.70" stroke="#ffffff" stroke-width="8" stroke-linecap="round"/>
<line x1="790.86" y1="558.09" x2="829.75" y2="603.70" stroke="#e74c3c" stroke-width="2" stroke-linecap="round"/>
<path d="M 829.75 603.70 A 59.93 59.93 0 0 1 745.26 596.98" stroke="#e74c3c" stroke-width="2" fill="none"/>
<!-- Windows -->
<line x1="787.14" y1="600.65" x2="833.47" y2="561.14" stroke="#ffffff" stroke-width="8" stroke-linecap="round"/>
<line x1="787.14" y1="600.65" x2="833.47" y2="561.14" stroke="#3498db" stroke-width="4" stroke-linecap="round"/>
<line x1="787.14" y1="600.65" x2="833.47" y2="561.14" stroke="#ffffff" stroke-width="2" stroke-linecap="round"/>
<line x1="755.50" y1="627.63" x2="865.12" y2="534.16" stroke="#ffffff" stroke-width="8" stroke-linecap="round"/>
<line x1="755.50" y1="627.63" x2="865.12" y2="534.16" stroke="#3498db" stroke-width="4" stroke-linecap="round"/>
<line x1="755.50" y1="627.63" x2="865.12" y2="534.16" stroke="#ffffff" stroke-width="2" stroke-linecap="round"/>
<line x1="762.77" y1="621.43" x2="857.85" y2="540.36" stroke="#ffffff" stroke-width="8" stroke-linecap="round"/>
<line x1="762.77" y1="621.43" x2="857.85" y2="540.36" stroke="#3498db" stroke-width="4" stroke-linecap="round"/>
<line x1="762.77" y1="621.43" x2="857.85" y2="540.36" stroke="#ffffff" stroke-width="2" stroke-linecap="round"/>
<line x1="747.67" y1="634.31" x2="872.95" y2="527.48" stroke="#ffffff" stroke-width="8" stroke-linecap="round"/>
<line x1="747.67" y1="634.31" x2="872.95" y2="527.48" stroke="#3498db" stroke-width="4" stroke-linecap="round"/>
<line x1="747.67" y1="634.31" x2="872.95" y2="527.48" stroke="#ffffff" stroke-width="2" stroke-linecap="round"/>
<line x1="760.18" y1="623.64" x2="860.44" y2="538.15" stroke="#ffffff" stroke-width="8" stroke-linecap="round"/>
<line x1="760.18" y1="623.64" x2="860.44" y2="538.15" stroke="#3498db" stroke-width="4" stroke-linecap="round"/>
<line x1="760.18" y1="623.64" x2="860.44" y2="538.15" stroke="#ffffff" stroke-width="2" stroke-linecap="round"/>
<line x1="762.02" y1="622.07" x2="858.59" y2="539.73" stroke="#ffffff" stroke-width="8" stroke-linecap="round"/>
<line x1="762.02" y1="622.07" x2="858.59" y2="539.73" stroke="#3498db" stroke-width="4" stroke-linecap="round"/>
<line x1="762.02" y1="622.07" x2="858.59" y2="539.73" stroke="#ffffff" stroke-width="2" stroke-linecap="round"/>
<!-- Room Labels -->
<text x="675.56" y="765.47" font-family="Arial, sans-serif" font-size="14" fill="#7f8c8d" text-anchor="middle" dominant-baseline="middle">Living Room</text>
<text x="359.34" y="499.13" font-family="Arial, sans-serif" font-size="14" fill="#7f8c8d" text-anchor="middle" dominant-baseline="middle">Dining Room</text>
<text x="60.00" y="394.08" font-family="Arial, sans-serif" font-size="14" fill="#7f8c8d" text-anchor="middle" dominant-baseline="middle">Kitchen</text>
<text x="182.28" y="773.52" font-family="Arial, sans-serif" font-size="14" fill="#7f8c8d" text-anchor="middle" dominant-baseline="middle">Unidentified</text>
</svg>