<?xml version="1.0" encoding="UTF-8"?>
<svg xmlns="http://www.w3.org/2000/svg" 
     width="750.11" height="755.73"
     viewBox="0 0 750.11 755.73">
<rect width="100%" height="100%" fill="#ffffff"/>

        <defs>
            <marker id="arrowhead" markerWidth="10" markerHeight="7" 
                    refX="9" refY="3.5" orient="auto">
                <polygon points="0 0, 10 3.5, 0 7" fill="#bdc3c7"/>
            </marker>
        </defs>
        
<!-- Floor -->
<polygon points="370.32,60.00 260.20,257.81 60.00,617.44 200.64,695.73 297.91,520.98 489.41,627.59 534.46,546.66 423.28,484.77 481.90,379.46 569.17,428.04 690.11,210.80 574.59,113.46 548.98,159.46" stroke="#e0e0e0" fill="#fafafa" stroke-width="2"/>
<!-- Objects/Furniture -->
<g id="objects" opacity="0.7">
<polygon points="458.36,177.21 397.55,143.36 375.78,182.48 436.59,216.33" stroke="#95a5a6" fill="#ecf0f1" stroke-width="1"/>
<polygon points="94.41,636.60 119.44,650.53 134.06,624.26 109.03,610.33" stroke="#95a5a6" fill="#ecf0f1" stroke-width="1"/>
<polygon points="162.99,584.44 211.60,497.11 179.39,479.18 130.78,566.51" stroke="#95a5a6" fill="#ecf0f1" stroke-width="1"/>
<polygon points="509.80,137.65 370.32,60.00 343.92,107.42 483.40,185.07" stroke="#95a5a6" fill="#ecf0f1" stroke-width="1"/>
<polygon points="321.67,470.44 348.72,421.84 346.25,420.46 319.19,469.06" stroke="#95a5a6" fill="#ecf0f1" stroke-width="1"/>
<polygon points="122.88,652.44 171.70,679.62 186.24,653.51 137.41,626.33" stroke="#95a5a6" fill="#ecf0f1" stroke-width="1"/>
<polygon points="93.15,635.89 119.09,650.34 133.96,623.64 108.01,609.20" stroke="#95a5a6" fill="#ecf0f1" stroke-width="1"/>
<polygon points="272.00,257.31 335.44,292.63 346.78,272.26 283.34,236.95" stroke="#95a5a6" fill="#ecf0f1" stroke-width="1"/>
<polygon points="67.31,621.51 94.53,636.66 109.26,610.19 82.05,595.04" stroke="#95a5a6" fill="#ecf0f1" stroke-width="1"/>
<polygon points="404.96,333.25 430.04,347.22 443.02,323.90 417.94,309.94" stroke="#95a5a6" fill="#ecf0f1" stroke-width="1"/>
<polygon points="613.66,348.07 620.42,335.99 610.01,330.17 603.25,342.25" stroke="#95a5a6" fill="#ecf0f1" stroke-width="1"/>
<polygon points="229.35,364.59 216.56,387.56 243.77,402.71 256.56,379.74" stroke="#95a5a6" fill="#ecf0f1" stroke-width="1"/>
<polygon points="494.61,386.53 564.44,425.41 573.17,409.72 503.34,370.85" stroke="#95a5a6" fill="#ecf0f1" stroke-width="1"/>
<polygon points="608.23,142.08 576.82,122.65 554.50,158.72 585.91,178.16" stroke="#95a5a6" fill="#ecf0f1" stroke-width="1"/>
<polygon points="170.08,676.30 201.66,693.88 214.49,670.84 182.91,653.26" stroke="#95a5a6" fill="#ecf0f1" stroke-width="1"/>
<polygon points="262.01,328.32 202.94,434.44 247.84,459.43 306.92,353.32" stroke="#95a5a6" fill="#ecf0f1" stroke-width="1"/>
<polygon points="562.72,211.61 581.32,182.29 553.62,164.71 535.02,194.02" stroke="#95a5a6" fill="#ecf0f1" stroke-width="1"/>
<polygon points="89.04,633.61 122.23,652.08 137.11,625.36 103.92,606.88" stroke="#95a5a6" fill="#ecf0f1" stroke-width="1"/>
<polygon points="657.46,186.20 632.78,167.35 611.99,194.57 636.67,213.42" stroke="#95a5a6" fill="#ecf0f1" stroke-width="1"/>
<polygon points="225.32,651.38 298.67,519.63 269.00,503.12 195.66,634.87" stroke="#95a5a6" fill="#ecf0f1" stroke-width="1"/>
<polygon points="301.26,337.69 278.29,324.90 263.13,352.10 286.10,364.90" stroke="#95a5a6" fill="#ecf0f1" stroke-width="1"/>
</g>
<!-- Walls -->
<line x1="569.17" y1="428.04" x2="690.11" y2="210.80" stroke="#2c3e50" stroke-width="6" stroke-linecap="round"/>
<line x1="548.98" y1="159.46" x2="370.32" y2="60.00" stroke="#2c3e50" stroke-width="6" stroke-linecap="round"/>
<line x1="200.64" y1="695.73" x2="297.91" y2="520.98" stroke="#2c3e50" stroke-width="6" stroke-linecap="round"/>
<line x1="60.00" y1="617.44" x2="200.64" y2="695.73" stroke="#2c3e50" stroke-width="6" stroke-linecap="round"/>
<line x1="690.11" y1="210.80" x2="574.59" y2="113.46" stroke="#2c3e50" stroke-width="6" stroke-linecap="round"/>
<line x1="534.46" y1="546.66" x2="423.28" y2="484.77" stroke="#2c3e50" stroke-width="6" stroke-linecap="round"/>
<line x1="423.28" y1="484.77" x2="481.90" y2="379.46" stroke="#2c3e50" stroke-width="6" stroke-linecap="round"/>
<line x1="481.90" y1="379.46" x2="569.17" y2="428.04" stroke="#2c3e50" stroke-width="6" stroke-linecap="round"/>
<line x1="489.41" y1="627.59" x2="534.46" y2="546.66" stroke="#2c3e50" stroke-width="6" stroke-linecap="round"/>
<line x1="574.59" y1="113.46" x2="548.98" y2="159.46" stroke="#2c3e50" stroke-width="6" stroke-linecap="round"/>
<line x1="397.87" y1="333.55" x2="434.88" y2="354.15" stroke="#2c3e50" stroke-width="6" stroke-linecap="round"/>
<line x1="351.55" y1="416.76" x2="375.23" y2="429.93" stroke="#2c3e50" stroke-width="6" stroke-linecap="round"/>
<line x1="351.55" y1="416.76" x2="397.87" y2="333.55" stroke="#2c3e50" stroke-width="6" stroke-linecap="round"/>
<line x1="321.93" y1="469.97" x2="351.55" y2="416.76" stroke="#2c3e50" stroke-width="6" stroke-linecap="round"/>
<line x1="345.60" y1="483.15" x2="321.93" y2="469.97" stroke="#2c3e50" stroke-width="6" stroke-linecap="round"/>
<line x1="345.60" y1="483.15" x2="375.23" y2="429.93" stroke="#2c3e50" stroke-width="6" stroke-linecap="round"/>
<line x1="260.20" y1="257.81" x2="361.39" y2="314.14" stroke="#2c3e50" stroke-width="6" stroke-linecap="round"/>
<line x1="260.20" y1="257.81" x2="60.00" y2="617.44" stroke="#2c3e50" stroke-width="6" stroke-linecap="round"/>
<line x1="297.91" y1="520.98" x2="489.41" y2="627.59" stroke="#2c3e50" stroke-width="6" stroke-linecap="round"/>
<line x1="370.32" y1="60.00" x2="260.20" y2="257.81" stroke="#2c3e50" stroke-width="6" stroke-linecap="round"/>
<!-- Doors -->
<line x1="428.53" y1="475.35" x2="450.73" y2="435.46" stroke="#ffffff" stroke-width="8" stroke-linecap="round"/>
<line x1="428.53" y1="475.35" x2="450.73" y2="435.46" stroke="#e74c3c" stroke-width="2" stroke-linecap="round"/>
<path d="M 450.73 435.46 A 45.65 45.65 0 0 1 468.41 497.55" stroke="#e74c3c" stroke-width="2" fill="none"/>
<line x1="572.95" y1="421.25" x2="651.77" y2="279.66" stroke="#ffffff" stroke-width="8" stroke-linecap="round"/>
<line x1="572.95" y1="421.25" x2="651.77" y2="279.66" stroke="#e74c3c" stroke-width="2" stroke-linecap="round"/>
<path d="M 651.77 279.66 A 162.06 162.06 0 0 1 714.55 500.08" stroke="#e74c3c" stroke-width="2" fill="none"/>
<line x1="328.27" y1="135.54" x2="308.12" y2="171.73" stroke="#ffffff" stroke-width="8" stroke-linecap="round"/>
<line x1="328.27" y1="135.54" x2="308.12" y2="171.73" stroke="#e74c3c" stroke-width="2" stroke-linecap="round"/>
<path d="M 308.12 171.73 A 41.43 41.43 0 0 1 292.07 115.39" stroke="#e74c3c" stroke-width="2" fill="none"/>
<line x1="94.41" y1="555.63" x2="76.53" y2="587.74" stroke="#ffffff" stroke-width="8" stroke-linecap="round"/>
<line x1="94.41" y1="555.63" x2="76.53" y2="587.74" stroke="#e74c3c" stroke-width="2" stroke-linecap="round"/>
<path d="M 76.53 587.74 A 36.75 36.75 0 0 1 62.30 537.75" stroke="#e74c3c" stroke-width="2" fill="none"/>
<line x1="341.28" y1="545.13" x2="374.01" y2="563.35" stroke="#ffffff" stroke-width="8" stroke-linecap="round"/>
<line x1="341.28" y1="545.13" x2="374.01" y2="563.35" stroke="#e74c3c" stroke-width="2" stroke-linecap="round"/>
<path d="M 374.01 563.35 A 37.46 37.46 0 0 1 323.06 577.85" stroke="#e74c3c" stroke-width="2" fill="none"/>
<!-- Windows -->
<line x1="573.66" y1="115.12" x2="555.15" y2="148.37" stroke="#ffffff" stroke-width="8" stroke-linecap="round"/>
<line x1="573.66" y1="115.12" x2="555.15" y2="148.37" stroke="#3498db" stroke-width="4" stroke-linecap="round"/>
<line x1="573.66" y1="115.12" x2="555.15" y2="148.37" stroke="#ffffff" stroke-width="2" stroke-linecap="round"/>
<line x1="144.01" y1="466.52" x2="100.22" y2="545.19" stroke="#ffffff" stroke-width="8" stroke-linecap="round"/>
<line x1="144.01" y1="466.52" x2="100.22" y2="545.19" stroke="#3498db" stroke-width="4" stroke-linecap="round"/>
<line x1="144.01" y1="466.52" x2="100.22" y2="545.19" stroke="#ffffff" stroke-width="2" stroke-linecap="round"/>
<line x1="198.98" y1="367.79" x2="160.99" y2="436.02" stroke="#ffffff" stroke-width="8" stroke-linecap="round"/>
<line x1="198.98" y1="367.79" x2="160.99" y2="436.02" stroke="#3498db" stroke-width="4" stroke-linecap="round"/>
<line x1="198.98" y1="367.79" x2="160.99" y2="436.02" stroke="#ffffff" stroke-width="2" stroke-linecap="round"/>
<line x1="249.03" y1="277.88" x2="198.98" y2="367.79" stroke="#ffffff" stroke-width="8" stroke-linecap="round"/>
<line x1="249.03" y1="277.88" x2="198.98" y2="367.79" stroke="#3498db" stroke-width="4" stroke-linecap="round"/>
<line x1="249.03" y1="277.88" x2="198.98" y2="367.79" stroke="#ffffff" stroke-width="2" stroke-linecap="round"/>
<line x1="305.66" y1="176.15" x2="265.61" y2="248.10" stroke="#ffffff" stroke-width="8" stroke-linecap="round"/>
<line x1="305.66" y1="176.15" x2="265.61" y2="248.10" stroke="#3498db" stroke-width="4" stroke-linecap="round"/>
<line x1="305.66" y1="176.15" x2="265.61" y2="248.10" stroke="#ffffff" stroke-width="2" stroke-linecap="round"/>
<line x1="368.32" y1="63.59" x2="329.74" y2="132.89" stroke="#ffffff" stroke-width="8" stroke-linecap="round"/>
<line x1="368.32" y1="63.59" x2="329.74" y2="132.89" stroke="#3498db" stroke-width="4" stroke-linecap="round"/>
<line x1="368.32" y1="63.59" x2="329.74" y2="132.89" stroke="#ffffff" stroke-width="2" stroke-linecap="round"/>
<!-- Room Labels -->
<text x="481.05" y="239.64" font-family="Arial, sans-serif" font-size="14" fill="#7f8c8d" text-anchor="middle" dominant-baseline="middle">Living Room</text>
<text x="278.94" y="400.65" font-family="Arial, sans-serif" font-size="14" fill="#7f8c8d" text-anchor="middle" dominant-baseline="middle">Dining Room</text>
<text x="177.75" y="571.16" font-family="Arial, sans-serif" font-size="14" fill="#7f8c8d" text-anchor="middle" dominant-baseline="middle">Kitchen</text>
<text x="425.31" y="542.90" font-family="Arial, sans-serif" font-size="14" fill="#7f8c8d" text-anchor="middle" dominant-baseline="middle">Unidentified</text>
</svg>