<svg xmlns="http://www.w3.org/2000/svg" width="1496" height="1755" viewBox="0 0 1496 1755">
<rect x="0" y="0" width="100%" height="100%" fill="white" />
<polyline points="1455.77,721.26 1042.32,1073.80 290.65,1714.75 40.00,1420.80 405.24,1109.37 63.95,709.11 233.09,564.88 431.24,797.26 651.35,609.58 495.82,427.18 949.89,40.00 1233.50,265.84 1137.35,347.83 1455.77,721.26" stroke="#888" fill="none" stroke-width="2.00" />
<line x1="495.82" y1="427.18" x2="949.89" y2="40.00" stroke="#111" stroke-width="7.20" stroke-linecap="square" opacity="1.000" />
<line x1="1137.35" y1="347.83" x2="1455.77" y2="721.26" stroke="#111" stroke-width="7.20" stroke-linecap="square" opacity="1.000" />
<line x1="40.00" y1="1420.80" x2="405.24" y2="1109.37" stroke="#111" stroke-width="7.20" stroke-linecap="square" opacity="1.000" />
<line x1="290.65" y1="1714.75" x2="40.00" y2="1420.80" stroke="#111" stroke-width="7.20" stroke-linecap="square" opacity="1.000" />
<line x1="949.89" y1="40.00" x2="1233.50" y2="265.84" stroke="#111" stroke-width="7.20" stroke-linecap="square" opacity="1.000" />
<line x1="233.09" y1="564.88" x2="431.24" y2="797.26" stroke="#111" stroke-width="7.20" stroke-linecap="square" opacity="1.000" />
<line x1="431.24" y1="797.26" x2="651.35" y2="609.58" stroke="#111" stroke-width="7.20" stroke-linecap="square" opacity="1.000" />
<line x1="651.35" y1="609.58" x2="495.82" y2="427.18" stroke="#111" stroke-width="7.20" stroke-linecap="square" opacity="1.000" />
<line x1="63.95" y1="709.11" x2="233.09" y2="564.88" stroke="#111" stroke-width="7.20" stroke-linecap="square" opacity="1.000" />
<line x1="1233.50" y1="265.84" x2="1137.35" y2="347.83" stroke="#111" stroke-width="7.20" stroke-linecap="square" opacity="1.000" />
<line x1="799.08" y1="785.63" x2="733.11" y2="708.27" stroke="#111" stroke-width="7.20" stroke-linecap="square" opacity="1.000" />
<line x1="625.16" y1="933.92" x2="582.97" y2="884.44" stroke="#111" stroke-width="7.20" stroke-linecap="square" opacity="1.000" />
<line x1="625.16" y1="933.92" x2="799.08" y2="785.63" stroke="#111" stroke-width="7.20" stroke-linecap="square" opacity="1.000" />
<line x1="513.93" y1="1028.77" x2="625.16" y2="933.92" stroke="#111" stroke-width="7.20" stroke-linecap="square" opacity="1.000" />
<line x1="471.74" y1="979.28" x2="513.93" y2="1028.77" stroke="#111" stroke-width="7.20" stroke-linecap="square" opacity="1.000" />
<line x1="471.74" y1="979.28" x2="582.97" y2="884.44" stroke="#111" stroke-width="7.20" stroke-linecap="square" opacity="1.000" />
<line x1="1042.32" y1="1073.80" x2="861.99" y2="862.31" stroke="#111" stroke-width="7.20" stroke-linecap="square" opacity="1.000" />
<line x1="1042.32" y1="1073.80" x2="290.65" y2="1714.75" stroke="#111" stroke-width="7.20" stroke-linecap="square" opacity="1.000" />
<line x1="405.24" y1="1109.37" x2="63.95" y2="709.11" stroke="#111" stroke-width="7.20" stroke-linecap="square" opacity="1.000" />
<line x1="1455.77" y1="721.26" x2="1042.32" y2="1073.80" stroke="#111" stroke-width="7.20" stroke-linecap="square" opacity="1.000" />
<line x1="1230.03" y1="268.80" x2="1160.53" y2="328.07" stroke="#00AEEF" stroke-width="5.04" stroke-linecap="square" opacity="1.000" />
<line x1="606.08" y1="1445.78" x2="441.65" y2="1585.99" stroke="#00AEEF" stroke-width="5.04" stroke-linecap="square" opacity="1.000" />
<line x1="812.46" y1="1269.81" x2="669.84" y2="1391.42" stroke="#00AEEF" stroke-width="5.04" stroke-linecap="square" opacity="1.000" />
<line x1="1000.38" y1="1109.57" x2="812.46" y2="1269.81" stroke="#00AEEF" stroke-width="5.04" stroke-linecap="square" opacity="1.000" />
<line x1="1213.01" y1="928.26" x2="1062.62" y2="1056.50" stroke="#00AEEF" stroke-width="5.04" stroke-linecap="square" opacity="1.000" />
<line x1="1448.28" y1="727.65" x2="1303.43" y2="851.16" stroke="#00AEEF" stroke-width="5.04" stroke-linecap="square" opacity="1.000" />
<line x1="450.93" y1="780.47" x2="534.31" y2="709.38" stroke="#2E8B57" stroke-width="4.32" stroke-linecap="square" opacity="0.900" />
<line x1="510.01" y1="415.08" x2="805.97" y2="162.72" stroke="#2E8B57" stroke-width="4.32" stroke-linecap="square" opacity="0.900" />
<line x1="1297.89" y1="855.88" x2="1222.23" y2="920.39" stroke="#2E8B57" stroke-width="4.32" stroke-linecap="square" opacity="0.900" />
<line x1="419.84" y1="1604.59" x2="352.73" y2="1661.82" stroke="#2E8B57" stroke-width="4.32" stroke-linecap="square" opacity="0.900" />
<line x1="327.95" y1="1018.72" x2="269.62" y2="950.32" stroke="#2E8B57" stroke-width="4.32" stroke-linecap="square" opacity="0.900" />
<text x="12.00" y="20.00" font-family="Menlo, monospace" font-size="12" fill="#666">source: Room.json  ppm=120  refOrigin=on</text>
</svg>