<?xml version="1.0" encoding="UTF-8"?>
<svg xmlns="http://www.w3.org/2000/svg" 
     width="870.65" height="861.34"
     viewBox="0 0 870.65 861.34">
<rect width="100%" height="100%" fill="#ffffff"/>

        <defs>
            <marker id="arrowhead" markerWidth="10" markerHeight="7" 
                    refX="9" refY="3.5" orient="auto">
                <polygon points="0 0, 10 3.5, 0 7" fill="#bdc3c7"/>
            </marker>
        </defs>
        
<!-- Floor -->
<polygon points="617.60,425.10 591.59,295.54 544.31,60.00 577.52,225.46 600.50,339.91 645.72,565.22 656.36,618.22 630.10,487.41 643.95,556.38 664.56,659.06 693.12,801.34 665.84,665.43 659.79,635.30" stroke="#e0e0e0" fill="#fafafa" stroke-width="2"/>
<!-- Objects/Furniture -->
<g id="objects" opacity="0.7">
<polygon points="670.26,465.02 616.07,401.47 575.20,436.32 629.39,499.88" stroke="#95a5a6" fill="#ecf0f1" stroke-width="1"/>
<polygon points="597.85,449.30 620.16,475.46 647.61,452.05 625.30,425.89" stroke="#95a5a6" fill="#ecf0f1" stroke-width="1"/>
<polygon points="654.01,394.93 562.74,472.75 591.45,506.41 682.72,428.59" stroke="#95a5a6" fill="#ecf0f1" stroke-width="1"/>
<polygon points="709.66,502.43 585.36,356.66 535.80,398.92 660.10,544.68" stroke="#95a5a6" fill="#ecf0f1" stroke-width="1"/>
<polygon points="647.03,427.72 596.23,471.04 598.43,473.62 649.23,430.31" stroke="#95a5a6" fill="#ecf0f1" stroke-width="1"/>
<polygon points="587.33,436.79 630.84,487.82 658.13,464.55 614.62,413.52" stroke="#95a5a6" fill="#ecf0f1" stroke-width="1"/>
<polygon points="597.22,449.01 620.34,476.13 648.24,452.34 625.12,425.22" stroke="#95a5a6" fill="#ecf0f1" stroke-width="1"/>
<polygon points="583.82,426.59 640.36,492.89 661.64,474.75 605.10,408.45" stroke="#95a5a6" fill="#ecf0f1" stroke-width="1"/>
<polygon points="596.77,448.24 621.02,476.69 648.69,453.10 624.44,424.65" stroke="#95a5a6" fill="#ecf0f1" stroke-width="1"/>
<polygon points="599.37,447.95 621.72,474.17 646.09,453.39 623.74,427.18" stroke="#95a5a6" fill="#ecf0f1" stroke-width="1"/>
<polygon points="624.39,439.84 611.77,450.64 621.07,461.51 633.69,450.71" stroke="#95a5a6" fill="#ecf0f1" stroke-width="1"/>
<polygon points="622.85,475.13 646.86,454.65 622.61,426.22 598.60,446.69" stroke="#95a5a6" fill="#ecf0f1" stroke-width="1"/>
<polygon points="583.42,421.17 645.65,494.15 662.04,480.17 599.81,407.19" stroke="#95a5a6" fill="#ecf0f1" stroke-width="1"/>
<polygon points="656.46,449.47 626.17,417.10 589.00,451.88 619.29,484.25" stroke="#95a5a6" fill="#ecf0f1" stroke-width="1"/>
<polygon points="596.62,444.43 624.76,477.44 648.84,456.91 620.70,423.90" stroke="#95a5a6" fill="#ecf0f1" stroke-width="1"/>
<polygon points="587.29,521.42 698.19,426.85 658.17,379.93 547.27,474.49" stroke="#95a5a6" fill="#ecf0f1" stroke-width="1"/>
<polygon points="624.16,422.05 594.07,450.86 621.30,479.30 651.39,450.49" stroke="#95a5a6" fill="#ecf0f1" stroke-width="1"/>
<polygon points="593.98,445.24 623.55,479.92 651.48,456.11 621.91,421.42" stroke="#95a5a6" fill="#ecf0f1" stroke-width="1"/>
<polygon points="650.29,447.52 622.29,422.93 595.17,453.82 623.17,478.41" stroke="#95a5a6" fill="#ecf0f1" stroke-width="1"/>
<polygon points="678.36,376.47 540.67,493.87 567.10,524.88 704.79,407.47" stroke="#95a5a6" fill="#ecf0f1" stroke-width="1"/>
<polygon points="647.18,450.54 626.70,426.54 598.28,450.80 618.76,474.80" stroke="#95a5a6" fill="#ecf0f1" stroke-width="1"/>
</g>
<!-- Walls -->
<line x1="736.25" y1="353.88" x2="509.21" y2="547.47" stroke="#2c3e50" stroke-width="6" stroke-linecap="round"/>
<line x1="702.34" y1="544.03" x2="543.12" y2="357.31" stroke="#2c3e50" stroke-width="6" stroke-linecap="round"/>
<line x1="714.04" y1="372.81" x2="531.42" y2="528.53" stroke="#2c3e50" stroke-width="6" stroke-linecap="round"/>
<line x1="560.07" y1="377.19" x2="685.39" y2="524.16" stroke="#2c3e50" stroke-width="6" stroke-linecap="round"/>
<line x1="693.63" y1="507.13" x2="551.83" y2="394.21" stroke="#2c3e50" stroke-width="6" stroke-linecap="round"/>
<line x1="672.27" y1="508.77" x2="573.19" y2="392.58" stroke="#2c3e50" stroke-width="6" stroke-linecap="round"/>
<line x1="677.76" y1="403.75" x2="567.70" y2="497.59" stroke="#2c3e50" stroke-width="6" stroke-linecap="round"/>
<line x1="583.85" y1="405.07" x2="661.61" y2="496.27" stroke="#2c3e50" stroke-width="6" stroke-linecap="round"/>
<line x1="665.02" y1="414.62" x2="580.44" y2="486.73" stroke="#2c3e50" stroke-width="6" stroke-linecap="round"/>
<line x1="598.69" y1="471.17" x2="646.77" y2="430.18" stroke="#2c3e50" stroke-width="6" stroke-linecap="round"/>
<line x1="606.24" y1="431.33" x2="639.22" y2="470.01" stroke="#2c3e50" stroke-width="6" stroke-linecap="round"/>
<line x1="612.18" y1="438.30" x2="633.28" y2="463.04" stroke="#2c3e50" stroke-width="6" stroke-linecap="round"/>
<line x1="666.21" y1="413.60" x2="579.25" y2="487.75" stroke="#2c3e50" stroke-width="6" stroke-linecap="round"/>
<line x1="650.54" y1="426.96" x2="594.92" y2="474.38" stroke="#2c3e50" stroke-width="6" stroke-linecap="round"/>
<line x1="633.28" y1="463.04" x2="612.18" y2="438.30" stroke="#2c3e50" stroke-width="6" stroke-linecap="round"/>
<line x1="650.54" y1="426.96" x2="594.92" y2="474.38" stroke="#2c3e50" stroke-width="6" stroke-linecap="round"/>
<line x1="577.65" y1="397.80" x2="667.81" y2="503.54" stroke="#2c3e50" stroke-width="6" stroke-linecap="round"/>
<line x1="434.81" y1="610.91" x2="810.65" y2="290.44" stroke="#2c3e50" stroke-width="6" stroke-linecap="round"/>
<line x1="537.41" y1="350.61" x2="708.05" y2="550.74" stroke="#2c3e50" stroke-width="6" stroke-linecap="round"/>
<line x1="519.37" y1="538.81" x2="726.09" y2="362.54" stroke="#2c3e50" stroke-width="6" stroke-linecap="round"/>
<!-- Doors -->
<line x1="643.57" y1="432.90" x2="601.89" y2="468.44" stroke="#ffffff" stroke-width="8" stroke-linecap="round"/>
<line x1="643.57" y1="432.90" x2="601.89" y2="468.44" stroke="#e74c3c" stroke-width="2" stroke-linecap="round"/>
<path d="M 601.89 468.44 A 54.78 54.78 0 0 1 608.03 391.21" stroke="#e74c3c" stroke-width="2" fill="none"/>
<line x1="696.72" y1="387.58" x2="548.74" y2="513.76" stroke="#ffffff" stroke-width="8" stroke-linecap="round"/>
<line x1="696.72" y1="387.58" x2="548.74" y2="513.76" stroke="#e74c3c" stroke-width="2" stroke-linecap="round"/>
<path d="M 548.74 513.76 A 194.47 194.47 0 0 1 570.54 239.61" stroke="#e74c3c" stroke-width="2" fill="none"/>
<line x1="603.82" y1="466.80" x2="641.64" y2="434.54" stroke="#ffffff" stroke-width="8" stroke-linecap="round"/>
<line x1="603.82" y1="466.80" x2="641.64" y2="434.54" stroke="#e74c3c" stroke-width="2" stroke-linecap="round"/>
<path d="M 641.64 434.54 A 49.71 49.71 0 0 1 636.07 504.63" stroke="#e74c3c" stroke-width="2" fill="none"/>
<line x1="605.95" y1="464.98" x2="639.51" y2="436.37" stroke="#ffffff" stroke-width="8" stroke-linecap="round"/>
<line x1="605.95" y1="464.98" x2="639.51" y2="436.37" stroke="#e74c3c" stroke-width="2" stroke-linecap="round"/>
<path d="M 639.51 436.37 A 44.10 44.10 0 0 1 634.57 498.54" stroke="#e74c3c" stroke-width="2" fill="none"/>
<line x1="608.15" y1="433.57" x2="637.31" y2="467.77" stroke="#ffffff" stroke-width="8" stroke-linecap="round"/>
<line x1="608.15" y1="433.57" x2="637.31" y2="467.77" stroke="#e74c3c" stroke-width="2" stroke-linecap="round"/>
<path d="M 637.31 467.77 A 44.95 44.95 0 0 1 573.94 462.74" stroke="#e74c3c" stroke-width="2" fill="none"/>
<!-- Windows -->
<line x1="605.36" y1="465.49" x2="640.10" y2="435.86" stroke="#ffffff" stroke-width="8" stroke-linecap="round"/>
<line x1="605.36" y1="465.49" x2="640.10" y2="435.86" stroke="#3498db" stroke-width="4" stroke-linecap="round"/>
<line x1="605.36" y1="465.49" x2="640.10" y2="435.86" stroke="#ffffff" stroke-width="2" stroke-linecap="round"/>
<line x1="581.62" y1="485.72" x2="663.84" y2="415.62" stroke="#ffffff" stroke-width="8" stroke-linecap="round"/>
<line x1="581.62" y1="485.72" x2="663.84" y2="415.62" stroke="#3498db" stroke-width="4" stroke-linecap="round"/>
<line x1="581.62" y1="485.72" x2="663.84" y2="415.62" stroke="#ffffff" stroke-width="2" stroke-linecap="round"/>
<line x1="587.08" y1="481.07" x2="658.38" y2="420.27" stroke="#ffffff" stroke-width="8" stroke-linecap="round"/>
<line x1="587.08" y1="481.07" x2="658.38" y2="420.27" stroke="#3498db" stroke-width="4" stroke-linecap="round"/>
<line x1="587.08" y1="481.07" x2="658.38" y2="420.27" stroke="#ffffff" stroke-width="2" stroke-linecap="round"/>
<line x1="575.75" y1="490.73" x2="669.71" y2="410.61" stroke="#ffffff" stroke-width="8" stroke-linecap="round"/>
<line x1="575.75" y1="490.73" x2="669.71" y2="410.61" stroke="#3498db" stroke-width="4" stroke-linecap="round"/>
<line x1="575.75" y1="490.73" x2="669.71" y2="410.61" stroke="#ffffff" stroke-width="2" stroke-linecap="round"/>
<line x1="585.13" y1="482.73" x2="660.33" y2="418.61" stroke="#ffffff" stroke-width="8" stroke-linecap="round"/>
<line x1="585.13" y1="482.73" x2="660.33" y2="418.61" stroke="#3498db" stroke-width="4" stroke-linecap="round"/>
<line x1="585.13" y1="482.73" x2="660.33" y2="418.61" stroke="#ffffff" stroke-width="2" stroke-linecap="round"/>
<line x1="586.52" y1="481.55" x2="658.94" y2="419.79" stroke="#ffffff" stroke-width="8" stroke-linecap="round"/>
<line x1="586.52" y1="481.55" x2="658.94" y2="419.79" stroke="#3498db" stroke-width="4" stroke-linecap="round"/>
<line x1="586.52" y1="481.55" x2="658.94" y2="419.79" stroke="#ffffff" stroke-width="2" stroke-linecap="round"/>
<!-- Room Labels -->
<text x="521.67" y="589.11" font-family="Arial, sans-serif" font-size="14" fill="#7f8c8d" text-anchor="middle" dominant-baseline="middle">Living Room</text>
<text x="284.50" y="389.35" font-family="Arial, sans-serif" font-size="14" fill="#7f8c8d" text-anchor="middle" dominant-baseline="middle">Dining Room</text>
<text x="60.00" y="310.56" font-family="Arial, sans-serif" font-size="14" fill="#7f8c8d" text-anchor="middle" dominant-baseline="middle">Kitchen</text>
<text x="151.71" y="595.14" font-family="Arial, sans-serif" font-size="14" fill="#7f8c8d" text-anchor="middle" dominant-baseline="middle">Unidentified</text>
</svg>