<?xml version="1.0" encoding="UTF-8"?>
<svg xmlns="http://www.w3.org/2000/svg" 
     width="745.54" height="737.78"
     viewBox="0 0 745.54 737.78">
<rect width="100%" height="100%" fill="#ffffff"/>

        <defs>
            <marker id="arrowhead" markerWidth="10" markerHeight="7" 
                    refX="9" refY="3.5" orient="auto">
                <polygon points="0 0, 10 3.5, 0 7" fill="#bdc3c7"/>
            </marker>
        </defs>
        
<!-- Floor -->
<polygon points="524.66,364.25 502.99,256.29 463.59,60.00 491.27,197.89 510.41,293.26 548.10,481.01 556.97,525.18 535.09,416.18 546.62,473.65 563.80,559.21 587.60,677.78 564.87,564.53 559.83,539.42" stroke="#e0e0e0" fill="#fafafa" stroke-width="2"/>
<!-- Walls -->
<line x1="623.54" y1="304.90" x2="434.34" y2="466.22" stroke="#2c3e50" stroke-width="6" stroke-linecap="round"/>
<line x1="595.28" y1="463.36" x2="462.60" y2="307.76" stroke="#2c3e50" stroke-width="6" stroke-linecap="round"/>
<line x1="605.03" y1="320.68" x2="452.85" y2="450.44" stroke="#2c3e50" stroke-width="6" stroke-linecap="round"/>
<line x1="476.72" y1="324.32" x2="581.16" y2="446.80" stroke="#2c3e50" stroke-width="6" stroke-linecap="round"/>
<line x1="588.03" y1="432.61" x2="469.86" y2="338.51" stroke="#2c3e50" stroke-width="6" stroke-linecap="round"/>
<line x1="570.22" y1="433.97" x2="487.66" y2="337.15" stroke="#2c3e50" stroke-width="6" stroke-linecap="round"/>
<line x1="574.80" y1="346.46" x2="483.09" y2="424.66" stroke="#2c3e50" stroke-width="6" stroke-linecap="round"/>
<line x1="496.54" y1="347.56" x2="561.34" y2="423.56" stroke="#2c3e50" stroke-width="6" stroke-linecap="round"/>
<line x1="564.18" y1="355.51" x2="493.70" y2="415.61" stroke="#2c3e50" stroke-width="6" stroke-linecap="round"/>
<line x1="508.91" y1="402.64" x2="548.97" y2="368.48" stroke="#2c3e50" stroke-width="6" stroke-linecap="round"/>
<line x1="515.20" y1="369.44" x2="542.68" y2="401.68" stroke="#2c3e50" stroke-width="6" stroke-linecap="round"/>
<line x1="520.15" y1="375.25" x2="537.73" y2="395.87" stroke="#2c3e50" stroke-width="6" stroke-linecap="round"/>
<line x1="565.17" y1="354.67" x2="492.71" y2="416.45" stroke="#2c3e50" stroke-width="6" stroke-linecap="round"/>
<line x1="552.11" y1="365.80" x2="505.77" y2="405.32" stroke="#2c3e50" stroke-width="6" stroke-linecap="round"/>
<line x1="537.73" y1="395.87" x2="520.15" y2="375.25" stroke="#2c3e50" stroke-width="6" stroke-linecap="round"/>
<line x1="552.11" y1="365.80" x2="505.77" y2="405.32" stroke="#2c3e50" stroke-width="6" stroke-linecap="round"/>
<line x1="491.37" y1="341.50" x2="566.51" y2="429.62" stroke="#2c3e50" stroke-width="6" stroke-linecap="round"/>
<line x1="372.34" y1="519.09" x2="685.54" y2="252.03" stroke="#2c3e50" stroke-width="6" stroke-linecap="round"/>
<line x1="457.84" y1="302.17" x2="600.04" y2="468.95" stroke="#2c3e50" stroke-width="6" stroke-linecap="round"/>
<line x1="442.81" y1="459.01" x2="615.08" y2="312.11" stroke="#2c3e50" stroke-width="6" stroke-linecap="round"/>
<!-- Doors -->
<line x1="546.31" y1="370.75" x2="511.57" y2="400.37" stroke="#ffffff" stroke-width="8" stroke-linecap="round"/>
<line x1="546.31" y1="370.75" x2="511.57" y2="400.37" stroke="#e74c3c" stroke-width="2" stroke-linecap="round"/>
<path d="M 511.57 400.37 A 45.65 45.65 0 0 1 516.69 336.01" stroke="#e74c3c" stroke-width="2" fill="none"/>
<line x1="590.60" y1="332.99" x2="467.28" y2="438.13" stroke="#ffffff" stroke-width="8" stroke-linecap="round"/>
<line x1="590.60" y1="332.99" x2="467.28" y2="438.13" stroke="#e74c3c" stroke-width="2" stroke-linecap="round"/>
<path d="M 467.28 438.13 A 162.06 162.06 0 0 1 485.45 209.67" stroke="#e74c3c" stroke-width="2" fill="none"/>
<line x1="513.18" y1="399.00" x2="544.70" y2="372.12" stroke="#ffffff" stroke-width="8" stroke-linecap="round"/>
<line x1="513.18" y1="399.00" x2="544.70" y2="372.12" stroke="#e74c3c" stroke-width="2" stroke-linecap="round"/>
<path d="M 544.70 372.12 A 41.43 41.43 0 0 1 540.06 430.52" stroke="#e74c3c" stroke-width="2" fill="none"/>
<line x1="514.96" y1="397.48" x2="542.92" y2="373.64" stroke="#ffffff" stroke-width="8" stroke-linecap="round"/>
<line x1="514.96" y1="397.48" x2="542.92" y2="373.64" stroke="#e74c3c" stroke-width="2" stroke-linecap="round"/>
<path d="M 542.92 373.64 A 36.75 36.75 0 0 1 538.80 425.45" stroke="#e74c3c" stroke-width="2" fill="none"/>
<line x1="516.79" y1="371.31" x2="541.09" y2="399.81" stroke="#ffffff" stroke-width="8" stroke-linecap="round"/>
<line x1="516.79" y1="371.31" x2="541.09" y2="399.81" stroke="#e74c3c" stroke-width="2" stroke-linecap="round"/>
<path d="M 541.09 399.81 A 37.46 37.46 0 0 1 488.29 395.61" stroke="#e74c3c" stroke-width="2" fill="none"/>
<!-- Windows -->
<line x1="514.46" y1="397.91" x2="543.42" y2="373.21" stroke="#ffffff" stroke-width="8" stroke-linecap="round"/>
<line x1="514.46" y1="397.91" x2="543.42" y2="373.21" stroke="#3498db" stroke-width="4" stroke-linecap="round"/>
<line x1="514.46" y1="397.91" x2="543.42" y2="373.21" stroke="#ffffff" stroke-width="2" stroke-linecap="round"/>
<line x1="494.69" y1="414.77" x2="563.20" y2="356.35" stroke="#ffffff" stroke-width="8" stroke-linecap="round"/>
<line x1="494.69" y1="414.77" x2="563.20" y2="356.35" stroke="#3498db" stroke-width="4" stroke-linecap="round"/>
<line x1="494.69" y1="414.77" x2="563.20" y2="356.35" stroke="#ffffff" stroke-width="2" stroke-linecap="round"/>
<line x1="499.23" y1="410.90" x2="558.65" y2="360.23" stroke="#ffffff" stroke-width="8" stroke-linecap="round"/>
<line x1="499.23" y1="410.90" x2="558.65" y2="360.23" stroke="#3498db" stroke-width="4" stroke-linecap="round"/>
<line x1="499.23" y1="410.90" x2="558.65" y2="360.23" stroke="#ffffff" stroke-width="2" stroke-linecap="round"/>
<line x1="489.79" y1="418.94" x2="568.09" y2="352.18" stroke="#ffffff" stroke-width="8" stroke-linecap="round"/>
<line x1="489.79" y1="418.94" x2="568.09" y2="352.18" stroke="#3498db" stroke-width="4" stroke-linecap="round"/>
<line x1="489.79" y1="418.94" x2="568.09" y2="352.18" stroke="#ffffff" stroke-width="2" stroke-linecap="round"/>
<line x1="497.61" y1="412.28" x2="560.27" y2="358.84" stroke="#ffffff" stroke-width="8" stroke-linecap="round"/>
<line x1="497.61" y1="412.28" x2="560.27" y2="358.84" stroke="#3498db" stroke-width="4" stroke-linecap="round"/>
<line x1="497.61" y1="412.28" x2="560.27" y2="358.84" stroke="#ffffff" stroke-width="2" stroke-linecap="round"/>
<line x1="498.76" y1="411.29" x2="559.12" y2="359.83" stroke="#ffffff" stroke-width="8" stroke-linecap="round"/>
<line x1="498.76" y1="411.29" x2="559.12" y2="359.83" stroke="#3498db" stroke-width="4" stroke-linecap="round"/>
<line x1="498.76" y1="411.29" x2="559.12" y2="359.83" stroke="#ffffff" stroke-width="2" stroke-linecap="round"/>
<!-- Room Labels -->
<text x="444.73" y="500.92" font-family="Arial, sans-serif" font-size="14" fill="#7f8c8d" text-anchor="middle" dominant-baseline="middle">Living Room</text>
<text x="247.09" y="334.45" font-family="Arial, sans-serif" font-size="14" fill="#7f8c8d" text-anchor="middle" dominant-baseline="middle">Dining Room</text>
<text x="60.00" y="268.80" font-family="Arial, sans-serif" font-size="14" fill="#7f8c8d" text-anchor="middle" dominant-baseline="middle">Kitchen</text>
<text x="136.43" y="505.95" font-family="Arial, sans-serif" font-size="14" fill="#7f8c8d" text-anchor="middle" dominant-baseline="middle">Unidentified</text>
</svg>